<?xml version="1.0" standalone="no"?>
<!DOCTYPE svg PUBLIC "-//W3C//DTD SVG 1.1//EN" "http://www.w3.org/Graphics/SVG/1.1/DTD/svg11.dtd">
<svg width="100%" height="100%" viewBox="0 0 500 500" version="1.1" xmlns="http://www.w3.org/2000/svg" xmlns:xlink="http://www.w3.org/1999/xlink" xml:space="preserve" style="fill-rule:evenodd;clip-rule:evenodd;stroke-linejoin:round;stroke-miterlimit:1.41421;">
    <g transform="matrix(5.90877e-16,2.08586,-2.08586,5.90877e-16,722.566,-344.309)">
        <g id="Layer 1">
            <path d="M223.366,256.272C231.379,256.272 238.217,259.105 243.883,264.771C249.599,270.487 252.458,277.35 252.458,285.363C252.458,293.376 249.599,300.215 243.883,305.881C238.217,311.597 231.379,314.455 223.366,314.455C215.353,314.455 208.489,311.597 202.772,305.88C197.667,300.778 194.861,294.704 194.351,287.66L194.351,283.144C194.861,276.049 197.667,269.925 202.772,264.771C208.489,259.105 215.353,256.272 223.366,256.272M364.23,227.181L364.23,314.455L194.351,219.777L194.351,169.477L257.014,203.715L257.014,147.904L301.542,169.477L364.153,147.904L364.153,227.181L364.23,227.181Z" style="fill:black;"/>
        </g>
    </g>
</svg>
